# xmcd
#
# Track frame offsets: 
#        150
#        17881
#        31025
#        47518
#        65164
#        83903
#        99690
#        117355
#        132764
#        153090
#        168475
#        186758
#        204224
#        218374
#
# Disc length: 3114 seconds
#
# Revision: 0
# Processed by: cddbd v1.5.2PL0 Copyright (c) Steve Scherf et al.
# Submitted via: ExactAudioCopy v1.0b1
#
DISCID=b00c280e
DTITLE=Luke Bryan - Spring Break...Here to Party
DYEAR=2013
DGENRE=Country
TTITLE0=Suntan City
TTITLE1=Just a Sip
TTITLE2=Buzzkill
TTITLE3=If You Ain't Here to Party
TTITLE4=Little Bit Later On
TTITLE5=In Love With the Girl
TTITLE6=Shore Thing
TTITLE7=Sorority Girl (Demo)
TTITLE8=Shake the Sand
TTITLE9=Love In a College Town
TTITLE10=Wild Weekend
TTITLE11=Cold Beer Drinker
TTITLE12=Spring Break-Up
TTITLE13=Take My Drunk Ass Home (Demo)
EXTD=
EXTT0=
EXTT1=
EXTT2=
EXTT3=
EXTT4=
EXTT5=
EXTT6=
EXTT7=
EXTT8=
EXTT9=
EXTT10=
EXTT11=
EXTT12=
EXTT13=
PLAYORDER=
